<mxfile host="app.diagrams.net" modified="2023-06-26T15:36:57.453Z" agent="Mozilla/5.0 (Windows NT 10.0; Win64; x64) AppleWebKit/537.36 (KHTML, like Gecko) Chrome/114.0.0.0 Safari/537.36" etag="JLDhxRAvfUFi4UqWehY1" version="21.5.0" type="github">
  <diagram name="Trang-1" id="M-l2DI9dFnT2_sfSlG6v">
    <mxGraphModel dx="989" dy="549" grid="0" gridSize="10" guides="1" tooltips="1" connect="1" arrows="1" fold="1" page="1" pageScale="1" pageWidth="827" pageHeight="1169" math="0" shadow="0">
      <root>
        <mxCell id="0" />
        <mxCell id="1" parent="0" />
        <mxCell id="QV0w6FN6LNtu0CfalgrK-11" value="&lt;b&gt;&lt;font style=&quot;font-size: 14px;&quot;&gt;Machine Learning&lt;/font&gt;&lt;/b&gt;" style="ellipse;whiteSpace=wrap;html=1;fillColor=#f8cecc;strokeColor=#b85450;" vertex="1" parent="1">
          <mxGeometry x="312" y="429" width="120" height="80" as="geometry" />
        </mxCell>
        <mxCell id="QV0w6FN6LNtu0CfalgrK-12" value="" style="shape=flexArrow;endArrow=classic;html=1;rounded=0;fillColor=#dae8fc;strokeColor=#6c8ebf;" edge="1" parent="1">
          <mxGeometry width="50" height="50" relative="1" as="geometry">
            <mxPoint x="424" y="499" as="sourcePoint" />
            <mxPoint x="447" y="523" as="targetPoint" />
          </mxGeometry>
        </mxCell>
        <mxCell id="QV0w6FN6LNtu0CfalgrK-13" value="" style="shape=flexArrow;endArrow=classic;html=1;rounded=0;fillColor=#dae8fc;strokeColor=#6c8ebf;" edge="1" parent="1">
          <mxGeometry width="50" height="50" relative="1" as="geometry">
            <mxPoint x="323" y="501" as="sourcePoint" />
            <mxPoint x="300" y="526" as="targetPoint" />
          </mxGeometry>
        </mxCell>
        <mxCell id="QV0w6FN6LNtu0CfalgrK-14" value="" style="shape=flexArrow;endArrow=classic;html=1;rounded=0;fillColor=#dae8fc;strokeColor=#6c8ebf;" edge="1" parent="1">
          <mxGeometry width="50" height="50" relative="1" as="geometry">
            <mxPoint x="371.71" y="422" as="sourcePoint" />
            <mxPoint x="371.71" y="387" as="targetPoint" />
          </mxGeometry>
        </mxCell>
        <mxCell id="QV0w6FN6LNtu0CfalgrK-15" value="&lt;b&gt;Unsupervised&lt;/b&gt;" style="ellipse;whiteSpace=wrap;html=1;fillColor=#dae8fc;strokeColor=#6c8ebf;" vertex="1" parent="1">
          <mxGeometry x="323.5" y="335" width="97" height="50" as="geometry" />
        </mxCell>
        <mxCell id="QV0w6FN6LNtu0CfalgrK-17" value="" style="endArrow=none;html=1;rounded=0;fillColor=#dae8fc;strokeColor=#6c8ebf;" edge="1" parent="1">
          <mxGeometry width="50" height="50" relative="1" as="geometry">
            <mxPoint x="420.5" y="359.71" as="sourcePoint" />
            <mxPoint x="467" y="360" as="targetPoint" />
          </mxGeometry>
        </mxCell>
        <mxCell id="QV0w6FN6LNtu0CfalgrK-19" value="&lt;b&gt;Clustering&lt;/b&gt;" style="rounded=1;whiteSpace=wrap;html=1;fillColor=#d5e8d4;strokeColor=#82b366;" vertex="1" parent="1">
          <mxGeometry x="467" y="338.5" width="86" height="43" as="geometry" />
        </mxCell>
        <mxCell id="QV0w6FN6LNtu0CfalgrK-20" value="" style="endArrow=none;html=1;rounded=0;fillColor=#dae8fc;strokeColor=#6c8ebf;" edge="1" parent="1">
          <mxGeometry width="50" height="50" relative="1" as="geometry">
            <mxPoint x="277" y="359.71" as="sourcePoint" />
            <mxPoint x="323.5" y="360" as="targetPoint" />
          </mxGeometry>
        </mxCell>
        <mxCell id="QV0w6FN6LNtu0CfalgrK-21" value="&lt;b&gt;Classification&lt;/b&gt;" style="rounded=1;whiteSpace=wrap;html=1;fillColor=#d5e8d4;strokeColor=#82b366;" vertex="1" parent="1">
          <mxGeometry x="191" y="338.5" width="86" height="43" as="geometry" />
        </mxCell>
        <mxCell id="QV0w6FN6LNtu0CfalgrK-22" value="&lt;b&gt;Reinforcement&lt;/b&gt;" style="ellipse;whiteSpace=wrap;html=1;fillColor=#dae8fc;strokeColor=#6c8ebf;" vertex="1" parent="1">
          <mxGeometry x="447" y="513" width="137" height="49" as="geometry" />
        </mxCell>
        <mxCell id="QV0w6FN6LNtu0CfalgrK-23" value="&lt;b&gt;Supervised&lt;/b&gt;" style="ellipse;whiteSpace=wrap;html=1;fillColor=#dae8fc;strokeColor=#6c8ebf;" vertex="1" parent="1">
          <mxGeometry x="177" y="521" width="137" height="46" as="geometry" />
        </mxCell>
        <mxCell id="QV0w6FN6LNtu0CfalgrK-24" value="" style="endArrow=none;html=1;rounded=0;fillColor=#dae8fc;strokeColor=#6c8ebf;entryX=0.5;entryY=1;entryDx=0;entryDy=0;exitX=0.832;exitY=0.128;exitDx=0;exitDy=0;exitPerimeter=0;" edge="1" parent="1" source="QV0w6FN6LNtu0CfalgrK-22" target="QV0w6FN6LNtu0CfalgrK-28">
          <mxGeometry width="50" height="50" relative="1" as="geometry">
            <mxPoint x="560" y="519" as="sourcePoint" />
            <mxPoint x="582" y="492" as="targetPoint" />
          </mxGeometry>
        </mxCell>
        <mxCell id="QV0w6FN6LNtu0CfalgrK-25" value="" style="endArrow=none;html=1;rounded=0;fillColor=#dae8fc;strokeColor=#6c8ebf;exitX=0.46;exitY=0.02;exitDx=0;exitDy=0;exitPerimeter=0;" edge="1" parent="1" source="QV0w6FN6LNtu0CfalgrK-29">
          <mxGeometry width="50" height="50" relative="1" as="geometry">
            <mxPoint x="582" y="581" as="sourcePoint" />
            <mxPoint x="563" y="555" as="targetPoint" />
          </mxGeometry>
        </mxCell>
        <mxCell id="QV0w6FN6LNtu0CfalgrK-26" value="" style="endArrow=none;html=1;rounded=0;fillColor=#dae8fc;strokeColor=#6c8ebf;entryX=0.464;entryY=0.042;entryDx=0;entryDy=0;entryPerimeter=0;" edge="1" parent="1" target="QV0w6FN6LNtu0CfalgrK-30">
          <mxGeometry width="50" height="50" relative="1" as="geometry">
            <mxPoint x="475" y="557" as="sourcePoint" />
            <mxPoint x="462" y="582" as="targetPoint" />
          </mxGeometry>
        </mxCell>
        <mxCell id="QV0w6FN6LNtu0CfalgrK-28" value="&lt;b&gt;Self Driving Cars&lt;/b&gt;" style="rounded=1;whiteSpace=wrap;html=1;fillColor=#d5e8d4;strokeColor=#82b366;" vertex="1" parent="1">
          <mxGeometry x="543" y="447.5" width="86" height="43" as="geometry" />
        </mxCell>
        <mxCell id="QV0w6FN6LNtu0CfalgrK-29" value="&lt;b&gt;Scenario Generation&lt;/b&gt;" style="rounded=1;whiteSpace=wrap;html=1;fillColor=#d5e8d4;strokeColor=#82b366;" vertex="1" parent="1">
          <mxGeometry x="550" y="583" width="86" height="43" as="geometry" />
        </mxCell>
        <mxCell id="QV0w6FN6LNtu0CfalgrK-30" value="&lt;b&gt;Trade Execution&lt;/b&gt;" style="rounded=1;whiteSpace=wrap;html=1;fillColor=#d5e8d4;strokeColor=#82b366;" vertex="1" parent="1">
          <mxGeometry x="420.5" y="583" width="86" height="43" as="geometry" />
        </mxCell>
        <mxCell id="QV0w6FN6LNtu0CfalgrK-31" value="" style="endArrow=none;html=1;rounded=0;fillColor=#dae8fc;strokeColor=#6c8ebf;entryX=0.5;entryY=1;entryDx=0;entryDy=0;exitX=0.242;exitY=0.075;exitDx=0;exitDy=0;exitPerimeter=0;" edge="1" parent="1" source="QV0w6FN6LNtu0CfalgrK-23">
          <mxGeometry width="50" height="50" relative="1" as="geometry">
            <mxPoint x="210" y="518.5" as="sourcePoint" />
            <mxPoint x="191" y="490.5" as="targetPoint" />
          </mxGeometry>
        </mxCell>
        <mxCell id="QV0w6FN6LNtu0CfalgrK-32" value="&lt;b&gt;Sentiment Analysis&lt;/b&gt;" style="rounded=1;whiteSpace=wrap;html=1;fillColor=#d5e8d4;strokeColor=#82b366;" vertex="1" parent="1">
          <mxGeometry x="147" y="447.5" width="86" height="43" as="geometry" />
        </mxCell>
        <mxCell id="QV0w6FN6LNtu0CfalgrK-33" value="" style="endArrow=none;html=1;rounded=0;fillColor=#dae8fc;strokeColor=#6c8ebf;entryX=0.464;entryY=0.042;entryDx=0;entryDy=0;entryPerimeter=0;" edge="1" parent="1">
          <mxGeometry width="50" height="50" relative="1" as="geometry">
            <mxPoint x="206" y="562" as="sourcePoint" />
            <mxPoint x="191" y="590" as="targetPoint" />
          </mxGeometry>
        </mxCell>
        <mxCell id="QV0w6FN6LNtu0CfalgrK-34" value="" style="endArrow=none;html=1;rounded=0;fillColor=#dae8fc;strokeColor=#6c8ebf;exitX=0.46;exitY=0.02;exitDx=0;exitDy=0;exitPerimeter=0;" edge="1" parent="1">
          <mxGeometry width="50" height="50" relative="1" as="geometry">
            <mxPoint x="304" y="593" as="sourcePoint" />
            <mxPoint x="277" y="564" as="targetPoint" />
          </mxGeometry>
        </mxCell>
        <mxCell id="QV0w6FN6LNtu0CfalgrK-35" value="&lt;b&gt;Price Prediction&lt;/b&gt;" style="rounded=1;whiteSpace=wrap;html=1;fillColor=#d5e8d4;strokeColor=#82b366;" vertex="1" parent="1">
          <mxGeometry x="150" y="590" width="86" height="43" as="geometry" />
        </mxCell>
        <mxCell id="QV0w6FN6LNtu0CfalgrK-36" value="&lt;b&gt;Fraud Detection&lt;/b&gt;" style="rounded=1;whiteSpace=wrap;html=1;fillColor=#d5e8d4;strokeColor=#82b366;" vertex="1" parent="1">
          <mxGeometry x="259" y="590" width="86" height="43" as="geometry" />
        </mxCell>
      </root>
    </mxGraphModel>
  </diagram>
</mxfile>
